<svg width="41" height="25" viewBox="0 0 41 25" fill="none" xmlns="http://www.w3.org/2000/svg">
<path d="M6.99866 21.6745C7.54138 21.6745 7.98285 21.6049 8.32306 21.4658C8.67138 21.3266 8.94274 21.1465 9.13714 20.9255C9.33155 20.7045 9.46521 20.4548 9.53811 20.1765C9.61101 19.8981 9.64746 19.6157 9.64746 19.3292C9.64746 19.0018 9.60291 18.7071 9.51381 18.4451C9.43281 18.1832 9.287 17.9621 9.07639 17.782C8.87388 17.6019 8.60252 17.4628 8.26231 17.3645C7.9221 17.2663 7.49278 17.2172 6.97436 17.2172H4.10685V21.6745H6.99866ZM4.10685 10.0216V14.4421H6.24533C6.69895 14.4421 7.10802 14.4094 7.47253 14.3439C7.83705 14.2784 8.14486 14.1638 8.39597 14C8.65518 13.8363 8.84958 13.6112 8.97919 13.3247C9.11689 13.0382 9.18575 12.678 9.18575 12.2441C9.18575 11.8185 9.13309 11.4664 9.02779 11.1881C8.92249 10.9016 8.76048 10.6724 8.54177 10.5005C8.32306 10.3286 8.0436 10.2058 7.70339 10.1321C7.37128 10.0584 6.97436 10.0216 6.51264 10.0216H4.10685ZM6.51264 6.91498C7.73579 6.91498 8.77668 7.02958 9.63531 7.25879C10.4939 7.488 11.1946 7.81136 11.7373 8.22885C12.2801 8.64634 12.6729 9.15387 12.9159 9.75145C13.167 10.349 13.2926 11.0162 13.2926 11.753C13.2926 12.1541 13.2359 12.5429 13.1225 12.9195C13.0091 13.2878 12.8309 13.6358 12.5879 13.9632C12.3449 14.2825 12.033 14.5772 11.6523 14.8473C11.2716 15.1174 10.8139 15.3508 10.2793 15.5472C11.4457 15.8337 12.3084 16.2963 12.8673 16.9348C13.4263 17.5733 13.7057 18.4001 13.7057 19.4152C13.7057 20.1765 13.5599 20.8846 13.2683 21.5395C12.9767 22.1943 12.5474 22.7674 11.9804 23.2585C11.4214 23.7415 10.7289 24.1222 9.90262 24.4005C9.07639 24.6706 8.13271 24.8057 7.07157 24.8057H0V6.91498H6.51264Z" fill="#00A39D"/>
<path d="M26.3214 10.5639C26.1999 10.7602 26.0703 10.9073 25.9326 11.0055C25.803 11.1036 25.6329 11.1527 25.4223 11.1527C25.236 11.1527 25.0335 11.0954 24.8148 10.9809C24.6041 10.8583 24.3611 10.7234 24.0857 10.5762C23.8184 10.429 23.5106 10.2982 23.1623 10.1837C22.814 10.0611 22.4171 9.99974 21.9715 9.99974C21.202 9.99974 20.6269 10.1674 20.2462 10.5026C19.8736 10.8297 19.6873 11.2753 19.6873 11.8395C19.6873 12.1993 19.8007 12.4977 20.0275 12.7348C20.2543 12.972 20.5499 13.1764 20.9145 13.3481C21.2871 13.5198 21.7083 13.6793 22.1781 13.8265C22.656 13.9655 23.142 14.1249 23.6362 14.3048C24.1303 14.4765 24.6122 14.6809 25.0821 14.9181C25.56 15.1552 25.9812 15.4577 26.3457 15.8257C26.7183 16.1936 27.018 16.6434 27.2448 17.1748C27.4716 17.6982 27.5851 18.3319 27.5851 19.0759C27.5851 19.9018 27.4433 20.6745 27.1598 21.394C26.8763 22.1136 26.4632 22.7432 25.9204 23.2829C25.3858 23.8144 24.7216 24.2355 23.9278 24.5462C23.142 24.8487 22.247 25 21.2425 25C20.6917 25 20.1287 24.9428 19.5536 24.8283C18.9866 24.7138 18.4358 24.5544 17.9011 24.3499C17.3665 24.1373 16.8643 23.888 16.3945 23.6018C15.9247 23.3156 15.5156 22.9967 15.1673 22.6451L16.3823 20.7072C16.4795 20.5682 16.6051 20.4537 16.759 20.3638C16.921 20.2657 17.0952 20.2166 17.2815 20.2166C17.5245 20.2166 17.7675 20.2943 18.0105 20.4496C18.2616 20.605 18.5411 20.7767 18.8489 20.9648C19.1648 21.1528 19.5253 21.3245 19.9303 21.4799C20.3353 21.6353 20.8132 21.7129 21.364 21.7129C22.1093 21.7129 22.6884 21.5494 23.1015 21.2223C23.5147 20.8871 23.7212 20.3597 23.7212 19.6401C23.7212 19.2231 23.6078 18.8838 23.381 18.6221C23.1542 18.3605 22.8545 18.1438 22.4819 17.9721C22.1174 17.8004 21.7002 17.6491 21.2304 17.5183C20.7606 17.3874 20.2786 17.2443 19.7845 17.089C19.2903 16.9254 18.8084 16.7292 18.3386 16.5003C17.8687 16.2631 17.4475 15.9565 17.0749 15.5804C16.7104 15.1961 16.4147 14.7218 16.1879 14.1576C15.9611 13.5852 15.8477 12.882 15.8477 12.048C15.8477 11.3775 15.9814 10.7234 16.2487 10.0856C16.516 9.4478 16.9089 8.87952 17.4273 8.38074C17.9457 7.88195 18.5816 7.48537 19.3349 7.19101C20.0882 6.88847 20.9509 6.7372 21.9229 6.7372C22.4657 6.7372 22.9922 6.78217 23.5025 6.87211C24.0209 6.95388 24.511 7.08063 24.9727 7.25235C25.4344 7.41588 25.8637 7.6162 26.2607 7.85334C26.6657 8.08228 27.0261 8.34394 27.342 8.6383L26.3214 10.5639Z" fill="#00A39D"/>
<path fill-rule="evenodd" clip-rule="evenodd" d="M41 6.17496C37.8467 5.86791 36.7379 7.60357 36.1193 8.46206C35.3304 5.02995 33.9964 5.30057 32.569 4.43598C34.6319 3.23906 35.2089 1.3782 35.1521 0C37.1727 1.48093 38.5817 1.32202 40.3265 0.841813C39.4583 3.43173 40.0065 4.16274 41 6.17496Z" fill="#F8AD3C"/>
<path d="M34.405 24.8132H30.1343V6.51746C32.8067 6.87941 34.4092 9.08895 34.405 11.4276V24.8132Z" fill="#00A39D"/>
</svg>
