<svg width="80" height="22" viewBox="0 0 80 22" fill="none" xmlns="http://www.w3.org/2000/svg">
<path fill-rule="evenodd" clip-rule="evenodd" d="M22.1802 22H0V0H22.1802V22Z" fill="#6A1F1D"/>
<path fill-rule="evenodd" clip-rule="evenodd" d="M2.99722 4.15029L8.21064 11.0019H20.0053L14.7868 4.15029H2.99722Z" fill="white"/>
<path fill-rule="evenodd" clip-rule="evenodd" d="M8.21064 11.0019L2.99722 17.8456H14.7868L20.0053 11.0019H8.21064Z" fill="#DA242A"/>
<path fill-rule="evenodd" clip-rule="evenodd" d="M78.1038 10.8501C78.7526 10.4992 79.8001 9.51986 79.8001 7.91874C79.8 5.41885 78.0797 3.86157 75.3106 3.86157L69.5052 3.86168V18.1941H75.5568C78.2938 18.1941 80 16.6069 80 14.0431C79.9999 12.121 78.8614 11.2262 78.1038 10.8501ZM72.4226 6.46473C72.5381 6.46473 75.0938 6.46473 75.0938 6.46473C76.213 6.46473 76.878 7.04723 76.878 8.03389C76.878 9.02454 76.213 9.61373 75.0938 9.61373C75.0937 9.61383 72.5382 9.61373 72.4227 9.61373L72.4226 6.46473ZM75.2784 15.6031C75.2784 15.6031 72.5382 15.603 72.4227 15.603L72.4226 12.231C72.5381 12.231 75.2784 12.2309 75.2784 12.2309C76.6096 12.231 77.0793 13.0957 77.0793 13.9053C77.0793 14.7269 76.6096 15.603 75.2784 15.6031ZM58.1498 13.0225C58.0492 12.8368 53.0584 3.83631 53.0584 3.83631L50.206 3.83641V18.1695H53.1255C53.1255 18.1695 53.1256 10.0359 53.1256 9.60714C53.3387 9.98333 58.1498 18.284 58.1498 18.284C58.1498 18.284 62.9506 9.98323 63.1707 9.60714C63.1705 10.0387 63.1707 18.1695 63.1707 18.1695H66.0854V3.83641H63.2316C63.2316 3.83641 58.2559 12.8367 58.1498 13.0225ZM43.7137 3.86168V18.1941H46.6359V3.86168H43.7137ZM38.8799 14.7447C38.0346 15.4146 37.0068 15.77 35.9205 15.77C33.2875 15.7701 31.2338 13.6902 31.2338 11.0312C31.2338 8.37552 33.2876 6.29096 35.9205 6.29096C37.0068 6.29096 38.0347 6.64178 38.8801 7.31557L38.9257 7.35022L40.9546 5.33237L40.9125 5.29502C39.5175 4.09805 37.7503 3.44215 35.9205 3.44215C31.6524 3.44225 28.1882 6.8482 28.1882 11.0312C28.1881 15.2129 31.6525 18.6162 35.9205 18.6162C37.7502 18.6162 39.5176 17.9605 40.9126 16.7681L40.9546 16.7267L38.9257 14.7102L38.8799 14.7447Z" fill="#6A1F1D"/>
</svg>
