<svg width="80" height="25" viewBox="0 0 80 25" fill="none" xmlns="http://www.w3.org/2000/svg">
<path fill-rule="evenodd" clip-rule="evenodd" d="M1.65484 1.07244H4.4154C4.6256 1.07244 4.78704 1.26122 4.7571 1.47194L3.47505 10.4828C3.42568 10.8296 3.69132 11.1402 4.03707 11.1402H8.87983C9.0174 11.1402 9.1228 11.264 9.10278 11.4017L8.72708 13.9898C8.70766 14.1243 8.59376 14.2241 8.45942 14.2241H2.98363C1.35481 14.2241 -0.207241 12.8706 0.0225857 11.2367L1.31273 1.37622C1.33539 1.20239 1.48166 1.07244 1.65484 1.07244Z" fill="#E82529"/>
<path fill-rule="evenodd" clip-rule="evenodd" d="M10.8601 4.66794L9.59642 13.8576C9.57639 14.0033 9.68807 14.1335 9.83333 14.1335H12.5047C12.6946 14.1335 12.8557 13.9916 12.882 13.801L14.1333 4.7608C14.16 4.55254 14 4.36786 13.7926 4.36786H11.2004C11.0288 4.36786 10.8837 4.49597 10.8601 4.66794Z" fill="#E82529"/>
<path fill-rule="evenodd" clip-rule="evenodd" d="M16.3702 13.4288C15.546 13.3987 15.1604 13.6604 14.674 13.9544C14.7914 13.1258 15.7117 6.66923 15.7956 6.27259C15.8845 5.84972 15.9652 5.14418 16.3322 4.78834C16.7623 4.37059 17.4281 4.13159 20.7408 4.12072C24.1222 4.10966 24.7773 6.57534 24.5978 8.17746C24.4449 9.54877 23.9417 12.9369 23.7997 13.8835C23.7781 14.0273 23.6567 14.1333 23.5137 14.1333H20.9016C20.7102 14.1333 20.5631 13.9624 20.5898 13.7705C20.7219 12.8239 21.0762 10.3004 21.1964 9.56762C21.3455 8.66121 21.4648 7.66378 21.2261 7.27002C20.9874 6.87707 20.2712 6.57535 18.8989 6.81722L17.8839 14.0884C17.8839 14.0884 17.2308 13.4604 16.3702 13.4288Z" fill="#E82529"/>
<path fill-rule="evenodd" clip-rule="evenodd" d="M27.4308 0.550436H30.3283C30.4362 0.550436 30.5191 0.64698 30.5043 0.755209L28.7013 13.9886C28.688 14.0868 28.605 14.16 28.5071 14.16H25.6464C25.5274 14.16 25.436 14.0536 25.4524 13.9343L27.2548 0.706014C27.2669 0.616849 27.342 0.550436 27.4308 0.550436Z" fill="#E82529"/>
<path fill-rule="evenodd" clip-rule="evenodd" d="M29.6729 8.52376L32.9475 4.63839C33.0507 4.51602 33.2016 4.44551 33.3606 4.44551H36.2353C36.4428 4.44551 36.5521 4.69455 36.4133 4.85054L33.065 8.61539L36.1258 15.285C36.2381 15.5297 36.0617 15.8097 35.7954 15.8097H33.1971C33.0614 15.8097 32.9382 15.7296 32.8815 15.6048L29.6729 8.52376Z" fill="#E82529"/>
<path fill-rule="evenodd" clip-rule="evenodd" d="M14.693 1.87945C14.4588 2.88077 13.5688 3.62587 12.6369 3.62587C11.7053 3.62587 10.9907 2.81415 11.2252 1.81304C11.4595 0.811716 12.2309 0 13.3365 0C14.2682 0 14.9273 0.878129 14.693 1.87945Z" fill="#E82529"/>
<path fill-rule="evenodd" clip-rule="evenodd" d="M56.679 1.87945C56.4448 2.88077 55.5548 3.62587 54.6229 3.62587C53.6913 3.62587 52.9767 2.81415 53.2112 1.81304C53.4455 0.811716 54.2169 0 55.3225 0C56.2542 0 56.9133 0.878127 56.679 1.87945Z" fill="#E82529"/>
<path fill-rule="evenodd" clip-rule="evenodd" d="M70.695 13.8453C70.4975 14.8347 69.5982 15.5708 68.6186 15.5702C67.6388 15.5698 66.848 14.7671 67.0454 13.7778C67.2429 12.7884 68.0143 11.9865 69.1768 11.9871C70.1564 11.9878 70.8924 12.8558 70.695 13.8453Z" fill="#E82529"/>
<path fill-rule="evenodd" clip-rule="evenodd" d="M46.0315 8.91715H44.2772C44.2121 8.91715 44.1674 8.85074 44.1913 8.78925L45.7179 4.86308C45.747 4.78827 45.8559 4.80425 45.863 4.8842L46.2061 8.72345C46.2154 8.82737 46.1347 8.91715 46.0315 8.91715ZM50.2813 13.8475L48.3237 1.97596C48.2381 1.45695 47.7946 1.07672 47.2753 1.07672H45.3111C44.712 1.07672 44.1682 1.43113 43.9202 1.98354L38.6469 13.8623C38.5704 14.0347 38.6954 14.2292 38.8818 14.2282L41.6217 14.212C41.8092 14.2109 41.978 14.097 42.0512 13.9223L42.962 11.7514C42.9867 11.6922 43.0439 11.6538 43.1075 11.6538H46.4234C46.5047 11.6538 46.5729 11.7163 46.5808 11.7983L46.7786 13.8526C46.8015 14.0916 47 14.2741 47.2371 14.2741H49.9246C50.1481 14.2741 50.3181 14.0707 50.2813 13.8475Z" fill="#E82529"/>
<path fill-rule="evenodd" clip-rule="evenodd" d="M48.9742 15.9979L49.607 17.9787C49.7207 18.3046 49.8065 18.3769 50.0288 18.3294C50.8282 18.1586 52.7597 17.5804 53.7047 16.2851C54.9365 14.5965 55.1055 11.6112 55.323 10.0939C55.502 8.84418 55.8941 5.76786 56.0268 4.72226C56.0507 4.53409 55.906 4.36785 55.7187 4.36785H53.2624C53.0453 4.36785 52.8618 4.5302 52.8327 4.74809C52.6346 6.22496 51.9213 11.5358 51.7967 12.2718C51.6518 13.1284 51.6229 14.3622 50.3722 15.0987C49.748 15.466 49.428 15.5361 49.181 15.653C49.0553 15.7124 48.9133 15.7762 48.9742 15.9979Z" fill="#E82529"/>
<path fill-rule="evenodd" clip-rule="evenodd" d="M62.4917 11.425C62.4917 11.425 61.2108 11.8663 60.596 11.399C59.981 10.9318 59.9298 9.97152 60.2885 8.59591C60.6472 7.22009 61.5438 6.98662 61.928 6.96059C62.3124 6.93456 63.0349 7.11883 63.0349 7.11883L62.4917 11.425ZM66.0384 4.72325C65.2101 4.51335 63.8176 4.05215 61.579 4.21838C59.5136 4.37171 57.1814 5.33962 56.7446 9.47055C56.3078 13.6015 58.1717 14.3982 60.8509 14.5163C62.8144 14.6028 64.3554 14.0555 65.0388 13.7569C65.2767 13.6529 65.4424 13.4301 65.4772 13.17L66.4671 5.21663C66.506 4.90096 66.3502 4.80216 66.0384 4.72325Z" fill="#E82529"/>
<path fill-rule="evenodd" clip-rule="evenodd" d="M67.9488 10.6703L68.6697 3.05432C68.6956 2.78149 68.9215 2.67019 69.192 2.67019H71.6787C71.9103 2.67019 72.0084 2.84832 71.9445 3.14L70.4267 10.7662C70.396 10.9138 70.2677 11.0194 70.1188 11.0194H68.2618C68.0763 11.0194 67.931 10.8575 67.9488 10.6703Z" fill="#E82529"/>
<path fill-rule="evenodd" clip-rule="evenodd" d="M38.85 24.7139C39.3425 24.9895 39.9176 25.0697 40.4651 24.9383C42.6458 24.4148 47.4718 23.0056 57.6803 21.5104C70.5057 19.632 79.9751 19.6398 79.9751 19.6398L80 19.6244C80 19.6244 71.6069 18.4561 57.832 19.8192C44.057 21.1823 36.3687 23.3245 36.3687 23.3245L38.85 24.7139Z" fill="#E82529"/>
</svg>
