<svg width="56" height="25" viewBox="0 0 56 25" fill="none" xmlns="http://www.w3.org/2000/svg">
<path d="M1.11937 0.0360922C4.37946 -9.10419e-07 7.64248 0.0302393 10.9035 0.0204844C12.4526 0.0341413 14.0046 -0.00682934 15.5527 0.0399942C16.4473 0.180465 17.335 0.554078 17.9446 1.24277C18.5468 1.9249 18.9048 2.78806 18.9621 3.69613C19.0021 4.3224 18.9465 4.95061 18.9387 5.57785C18.8176 4.78904 18.4969 4.04425 18.0071 3.41422C17.0121 2.17827 15.5781 1.33057 14.0417 0.960857C12.2166 0.502377 10.3192 0.682842 8.45799 0.652602C8.31459 0.636994 8.0912 0.682842 8.13022 0.877941C8.13022 4.36044 8.13022 7.84489 8.13022 11.3274C8.08632 11.5391 8.34093 11.4708 8.45994 11.4884C10.6606 11.4484 12.957 11.7176 15.0513 10.8757C16.3663 10.3431 17.6061 9.48177 18.3465 8.24875C18.6439 7.73016 18.8473 7.16315 18.9474 6.57383C18.9894 8.18241 18.9377 9.79295 18.967 11.4015C18.6802 11.4991 18.3953 11.6122 18.1173 11.7342C18.3973 11.7956 18.6782 11.8512 18.9601 11.9029C18.9387 12.6511 18.9494 13.4013 18.9552 14.1466C17.9954 13.4764 16.9672 12.8862 15.8337 12.5702C14.3704 12.1195 12.8194 12.1156 11.2996 12.1224C10.247 12.1302 9.19448 12.1107 8.1429 12.1419C8.13022 15.8907 8.1429 19.6405 8.13705 23.3903C8.0834 23.5991 8.32142 23.5854 8.45896 23.5854C9.82465 23.5854 11.1903 23.5854 12.556 23.5854C14.7704 23.5727 17.0579 23.005 18.8236 21.6188C19.432 21.1819 19.9325 20.6117 20.2868 19.9517C21.0408 18.6972 21.0877 17.0155 20.2868 15.7708C20.201 14.6285 20.2868 13.4784 20.2536 12.3331C21.7169 12.8989 23.0601 13.8715 23.9 15.2147C24.3113 15.8508 24.5733 16.5718 24.6664 17.3236C24.7595 18.0753 24.6813 18.8384 24.4375 19.5557C23.9127 21.095 22.6494 22.2675 21.2642 23.0518C20.2331 23.5669 19.1338 23.9649 17.9846 24.1083C17.3847 24.1688 16.7858 24.2565 16.181 24.2448C11.1084 24.2357 6.03584 24.2338 0.963287 24.239C1.85294 24.0351 2.74453 23.6664 3.34836 22.9533C3.98087 22.2117 4.32082 21.2647 4.30434 20.2902C4.30434 15.5753 4.30434 10.8605 4.30434 6.14559C4.30434 5.26765 4.33849 4.38288 4.27703 3.50494C4.22369 2.86646 4.00956 2.25189 3.6546 1.71851C3.29964 1.18512 2.8154 0.750303 2.24703 0.454578C1.89781 0.247774 1.492 0.183391 1.11937 0.0360922Z" fill="#020202"/>
<path d="M40.9701 1.38422C44.993 -0.448726 49.809 -0.454579 53.7939 1.47397C53.9812 1.55005 54.229 1.71686 54.4055 1.52372C54.9265 1.02817 55.4308 0.511157 55.9332 0C55.9019 2.60944 55.9458 5.22083 55.9107 7.83026C55.8327 7.69623 55.7699 7.5539 55.7234 7.40593C55.1284 5.74759 54.1802 4.19851 52.8877 2.99085C51.8146 1.97439 50.4948 1.18522 49.0423 0.859407C47.2994 0.452865 45.4691 0.672853 43.8722 1.4808C42.2849 2.30233 40.9573 3.54891 40.0375 5.08133C39.4015 6.07002 38.927 7.15371 38.6319 8.29167C37.991 10.3246 37.949 12.5165 38.2914 14.6099C38.3626 15.1113 38.5324 15.5922 38.6036 16.0936L38.6836 16.161C38.7122 16.5133 38.7213 16.867 38.7109 17.2203L38.585 17.1677L38.6163 17.1384C36.9579 15.3825 35.243 13.6676 33.5983 11.8932C33.6793 9.94806 34.2275 8.01366 35.2684 6.36313C36.1309 4.96839 37.2575 3.75558 38.585 2.79283C39.3431 2.26328 40.1404 1.79238 40.9701 1.38422V1.38422Z" fill="#020202"/>
<path d="M20.2458 4.49799C21.0818 5.32325 21.9237 6.14364 22.7323 6.9972C22.429 8.14242 21.8915 9.30716 20.9326 10.0407C20.7189 10.1988 20.3404 10.5148 20.2214 10.588C20.2614 8.55896 20.2156 6.52799 20.2458 4.49799Z" fill="#020202"/>
<path d="M55.6766 16.9735C55.7361 16.8292 55.7741 16.6653 55.9049 16.5648C55.9322 19.1118 55.9117 21.6598 55.9156 24.2068C55.3761 23.7405 54.903 23.202 54.388 22.7094C54.2625 22.5755 54.1324 22.5755 53.9978 22.7094C52.4233 23.4293 50.7562 23.9727 49.0228 24.1444C46.1305 24.4585 43.1367 23.9805 40.5361 22.6577C40.3546 22.5494 40.1225 22.5036 39.9927 22.328C39.9859 21.2716 39.9732 20.2141 39.9927 19.1577C40.9506 20.6463 42.2363 21.9563 43.8264 22.7611C45.2819 23.4946 46.9306 23.7535 48.5409 23.5015C50.3202 23.2167 51.919 22.2509 53.1735 20.9965C54.2766 19.8426 55.1288 18.4729 55.6766 16.9735V16.9735Z" fill="#020202"/>
<path d="M15.5527 0.0399936C17.7612 0.0185327 19.9697 0.0292631 22.1783 0.0399936C23.1537 1.05353 24.1088 2.0934 25.1096 3.08645C27.9268 6.03634 30.7558 8.97387 33.5964 11.899C35.2411 13.6735 36.954 15.3845 38.6143 17.1443L38.5831 17.1735L38.7089 17.2262C38.7193 16.8728 38.7102 16.5192 38.6816 16.1668C38.7421 13.8012 38.7128 11.4337 38.7304 9.06621C38.7263 8.80717 38.6936 8.54938 38.6328 8.29753C38.9288 7.15904 39.4043 6.07501 40.0414 5.08621C39.981 5.50372 40.0141 5.92611 40.0083 6.34654C40.0083 10.6182 40.0171 14.8899 40.0083 19.1625C39.9839 20.219 39.9966 21.2764 40.0083 22.3329C40.0171 22.8957 40.0346 23.4606 40.0083 24.0234L39.9185 24.2C38.2465 22.4743 36.5229 20.7984 34.8333 19.0904C32.7965 17.0643 30.7811 15.0167 28.7297 13.0072C26.9962 11.2308 25.2384 9.47592 23.4796 7.72394C23.2845 7.52299 23.0669 7.34545 22.9148 7.11035L22.7392 7.00207C21.9305 6.14852 21.0886 5.32813 20.2526 4.50287C20.2195 6.53286 20.2682 8.56383 20.2283 10.5929C20.2283 10.7002 20.2165 11.7742 20.2507 12.3419C20.2858 13.4871 20.198 14.6372 20.2839 15.7795C20.1922 16.5316 20.2575 17.2916 20.237 18.0476C20.2643 18.6846 20.1902 19.3274 20.2868 19.9605C19.9325 20.6205 19.432 21.1907 18.8235 21.6276C18.8762 21.1828 18.9718 20.7428 18.9591 20.2931C18.9533 18.2446 18.9591 16.201 18.9533 14.1553C18.9474 13.4062 18.9367 12.656 18.9582 11.9117C18.9582 11.7264 18.965 11.584 18.965 11.4103C18.9357 9.80076 18.9874 8.1912 18.9455 6.58261C18.9357 6.24997 18.9377 5.9183 18.9455 5.58664C18.9533 4.9594 19.0089 4.33118 18.9689 3.70491C18.9116 2.79684 18.5536 1.93368 17.9515 1.25155C17.3349 0.554077 16.4473 0.180464 15.5527 0.0399936Z" fill="#FFBE00"/>
<path d="M35.3816 0.0478009C37.9568 0.0214626 40.5331 0.0146342 43.1074 0.0478009C42.327 0.334595 41.4257 0.633095 40.9701 1.38422C40.1397 1.79261 39.3417 2.26384 38.5831 2.79381C38.4553 2.28363 38.1471 1.8427 37.8466 1.42032C37.2138 0.684791 36.3401 0.198296 35.3816 0.0478009V0.0478009Z" fill="#FFBE00"/>
<path d="M17.9719 24.1122C19.1211 23.9688 20.2205 23.5708 21.2515 23.0557L21.2906 23.0499C21.6702 23.4537 22.1374 23.7651 22.6563 23.96C22.8201 24.0302 23.0123 24.0576 23.1245 24.2127C21.3862 24.2761 18.5611 24.2214 16.8209 24.24L17.9719 24.1122Z" fill="#FFBE00"/>
</svg>
