<svg width="80" height="20" viewBox="0 0 80 20" fill="none" xmlns="http://www.w3.org/2000/svg">
<path d="M46.2027 17.5475C46.1952 16.7764 45.9169 16.2347 45.3602 15.93C45.1909 15.8435 44.9765 15.7758 44.7207 15.7307C44.4649 15.6855 44.179 15.6592 43.8706 15.6592H42.7572V19.5148H43.8706C44.6793 19.5185 45.2699 19.3681 45.6348 19.0521C45.8191 18.9016 45.9582 18.6948 46.056 18.4352C46.1538 18.1757 46.2027 17.8823 46.2027 17.5475ZM42.7572 12.0782V15.3809H43.9157C45.2624 15.3733 45.962 14.8129 45.9695 13.6919C45.9808 12.6011 45.2436 12.0707 43.8142 12.0782H42.7534H42.7572ZM41.8431 18.9919C41.8507 18.8678 41.8582 18.6722 41.862 18.3976V13.1916L41.8469 12.6876C41.8431 12.5823 41.8394 12.5071 41.8319 12.4694C41.8243 12.4281 41.8168 12.3942 41.8055 12.3641C41.7679 12.2362 41.6814 12.1459 41.5497 12.0895C41.4294 12.0406 41.2526 12.0143 41.0231 12.0143V11.8375H43.9947C44.4273 11.8375 44.8185 11.8676 45.1646 11.924C45.5144 11.9804 45.7927 12.0557 46.0071 12.1535C46.6278 12.4469 46.9362 12.9434 46.9325 13.6506C46.94 14.6586 46.278 15.3019 44.905 15.4711L44.6756 15.5087C44.984 15.52 45.4015 15.6216 45.5971 15.6667C45.789 15.7119 45.9808 15.7833 46.1651 15.8774C46.8949 16.2422 47.2522 16.829 47.2447 17.6378C47.2484 18.6195 46.7707 19.259 45.7965 19.5637C45.5821 19.6238 45.315 19.6727 44.9953 19.7066C44.6718 19.7405 44.322 19.7593 43.9421 19.7593H41.0269V19.5825C41.3692 19.5787 41.6062 19.526 41.7115 19.4019C41.7566 19.3605 41.7867 19.3154 41.8055 19.2627C41.8281 19.2101 41.8394 19.116 41.8469 18.9957" fill="#231F20"/>
<path d="M48.6891 18.3148C48.6929 18.6759 48.7794 18.9693 48.9562 19.1875C49.133 19.4094 49.3699 19.5223 49.6633 19.5298C49.9605 19.526 50.2389 19.4471 50.4984 19.3004C50.7579 19.1499 50.9648 18.9505 51.1153 18.7023C51.2056 18.5443 51.2733 18.3412 51.3147 18.0929C51.356 17.8484 51.3748 17.54 51.3748 17.1789V16.6109C50.8445 16.656 50.4645 16.7049 50.19 16.7651C49.9116 16.8253 49.6671 16.908 49.4527 17.0171C48.9449 17.2691 48.6929 17.7055 48.6891 18.3148ZM51.4952 19.5336C51.435 19.4132 51.3936 19.274 51.3748 18.9092V18.8001L51.2996 18.8828C51.2131 18.9806 51.1303 19.0634 51.0513 19.1311C50.9686 19.2026 50.8746 19.274 50.7655 19.3493C50.5323 19.5223 50.3066 19.6427 50.0884 19.7141C49.8702 19.7856 49.6257 19.8194 49.3549 19.8157C48.8809 19.8157 48.5161 19.7066 48.2565 19.4847C48.1098 19.353 47.997 19.1913 47.9142 18.9881C47.8315 18.7888 47.7901 18.5744 47.7863 18.3449C47.7901 17.4986 48.313 16.9494 49.3775 16.7087C49.6596 16.6447 49.9567 16.5883 50.2689 16.5469C50.5812 16.5055 50.9385 16.4717 51.3372 16.4416L51.3786 15.7006C51.3786 15.4486 51.3673 15.2417 51.341 15.0875C51.3147 14.9295 51.277 14.7903 51.2169 14.6737C51.0589 14.3652 50.7391 14.2185 50.2727 14.2185C49.5279 14.2148 49.1217 14.5684 49.0803 15.2755C49.0765 15.3884 49.0653 15.4674 49.0502 15.5163C49.0352 15.5614 49.0126 15.5953 48.9788 15.6178C48.9035 15.6667 48.7869 15.6968 48.6176 15.6968C48.2528 15.7043 48.1136 15.5953 48.1211 15.4109C48.1211 15.2191 48.1851 15.0348 48.313 14.8542C48.4409 14.6737 48.6176 14.5195 48.8471 14.3878C49.2609 14.1584 49.7912 14.0418 50.4382 14.0418C51.1491 14.0418 51.6231 14.2035 51.8864 14.5119C51.9917 14.6398 52.0707 14.8016 52.1196 14.9934C52.1723 15.1853 52.1948 15.4335 52.1948 15.7307V15.7946L52.1873 16.0843L52.1723 16.8478L52.161 17.8973L52.1497 18.4051C52.1497 18.6421 52.161 18.8264 52.176 19.0295C52.1911 19.2289 52.2626 19.4508 52.4205 19.5072C52.586 19.5674 52.744 19.5938 53.0487 19.5938C53.2706 19.59 53.4437 19.5637 53.5603 19.5148C53.6919 19.4583 53.7747 19.338 53.8085 19.1687C53.8424 19.0032 53.8574 18.7512 53.8537 18.4126V15.4486C53.8612 15.0461 53.8123 14.7602 53.6995 14.6135C53.5866 14.4706 53.3797 14.4066 53.0901 14.4104V14.2524L54.6699 14.1358V15.3959L54.7527 15.2492C54.9859 14.8317 55.253 14.5383 55.5464 14.3615C55.8435 14.1847 56.2121 14.0982 56.656 14.1019C57.3256 14.0944 57.792 14.3163 58.0666 14.7677C58.1681 14.9182 58.2396 15.0987 58.2847 15.3131C58.3261 15.5238 58.3487 15.7946 58.3487 16.1256V18.4126C58.3449 18.7549 58.36 19.007 58.3901 19.1725C58.4239 19.3417 58.5029 19.4621 58.6383 19.5148C58.7474 19.5599 59.007 19.5862 59.2251 19.59C59.432 19.5825 59.59 19.5599 59.6991 19.511C59.827 19.4546 59.906 19.3342 59.9398 19.1649C59.9699 18.9994 59.985 18.7474 59.9812 18.4089V13.0261C59.985 12.7177 59.9737 12.4882 59.9398 12.3415C59.906 12.1873 59.827 12.082 59.6991 12.0369C59.5862 11.9992 59.417 11.9804 59.195 11.9767V11.8187L60.8388 11.7359C60.82 12.1008 60.8012 12.4732 60.7937 12.8569C60.7824 13.2556 60.7749 13.6017 60.7749 13.9026V17.5174L62.5842 15.5313C62.8399 15.2492 62.9791 15.0085 62.9829 14.8166C62.9942 14.5496 62.7271 14.4292 62.287 14.4104V14.2524H64.6417V14.4104C64.4988 14.4254 64.3784 14.4518 64.2731 14.4894C64.1602 14.527 64.0436 14.5834 63.9233 14.6549C63.8029 14.7263 63.7013 14.7941 63.6186 14.8542C63.5358 14.9182 63.438 15.0047 63.3214 15.1213C63.2086 15.2342 63.0431 15.4109 62.8287 15.6442L62.2306 16.2874L63.7954 18.7474C63.9759 19.0408 64.1377 19.2439 64.2881 19.3643C64.4311 19.4771 64.6154 19.5486 64.8373 19.5825V19.7442H63.4079C63.3703 19.6652 63.3139 19.5599 63.2462 19.432L63.0205 19.0182L62.8475 18.706L61.6889 16.8178L60.7786 17.8371V18.4089C60.7711 18.7474 60.7862 18.9994 60.82 19.1649C60.8539 19.3342 60.9329 19.4546 61.0645 19.511C61.1811 19.5599 61.3504 19.5862 61.5723 19.59V19.7442H56.735V19.59C57.0623 19.5825 57.2879 19.526 57.3782 19.4094C57.4158 19.3643 57.4422 19.3116 57.461 19.2515C57.4798 19.1913 57.4911 19.116 57.4986 19.022C57.5061 18.9468 57.5099 18.8415 57.5174 18.7023C57.5249 18.5631 57.5287 18.4653 57.5287 18.4126V16.1896C57.5287 15.6404 57.4723 15.2342 57.3481 14.9784C57.1601 14.5721 56.8178 14.369 56.3363 14.369C55.7984 14.369 55.3696 14.6248 55.0498 15.1288C54.9295 15.3207 54.8354 15.5388 54.7715 15.7796C54.7038 16.0241 54.6699 16.261 54.6699 16.498V18.4126C54.6699 18.7549 54.6812 19.007 54.7113 19.1725C54.7452 19.3417 54.8241 19.4621 54.9596 19.5148C55.0762 19.5637 55.2492 19.5862 55.4749 19.59V19.7442H53.0976C52.887 19.7517 52.4845 19.763 52.2851 19.7593C52.0782 19.7593 51.9767 19.7329 51.7848 19.7216C51.6156 19.6727 51.5441 19.6276 51.4877 19.5185" fill="#231F20"/>
<path d="M2.66316 16.1143C3.27628 16.1143 3.7239 15.9676 4.01354 15.6818C4.17153 15.5163 4.28813 15.2981 4.37089 15.0273C4.45364 14.7564 4.49125 14.448 4.49502 14.1019C4.49502 12.7967 3.9195 12.1459 2.77976 12.1422H2.15159V16.1143H2.66316ZM2.15535 16.4228V18.3938C2.15159 18.7098 2.1704 18.9468 2.20801 19.0972C2.24939 19.2515 2.3359 19.353 2.47132 19.4019C2.60673 19.4508 2.81362 19.4809 3.09197 19.4847V19.7593H0V19.4847C0.263306 19.4809 0.458905 19.4508 0.586797 19.4019C0.714689 19.353 0.793681 19.2515 0.831296 19.0972C0.868911 18.943 0.883957 18.7098 0.880196 18.3938V13.2142C0.883957 12.8983 0.868911 12.6613 0.831296 12.5108C0.793681 12.3566 0.71845 12.255 0.59432 12.2024C0.473952 12.1497 0.285876 12.1196 0.0376152 12.1121V11.8375H2.98665C3.97969 11.8337 4.70942 12.0105 5.17209 12.3641C5.63476 12.7177 5.86421 13.2782 5.85669 14.0418C5.85669 15.1138 5.44292 15.8172 4.6041 16.1482C4.38593 16.2347 4.10758 16.2987 3.76528 16.3476C3.42674 16.3965 3.05059 16.419 2.63306 16.4228H2.15159H2.15535Z" fill="#231F20"/>
<path d="M7.24845 16.4491H9.5016C9.49408 16.1219 9.47527 15.8623 9.44894 15.663C9.42261 15.4636 9.38123 15.2868 9.32857 15.1288C9.13673 14.5759 8.84709 14.3013 8.45213 14.3051C8.01204 14.3051 7.68102 14.6173 7.46285 15.2342C7.40643 15.3921 7.36129 15.5689 7.32744 15.757C7.29359 15.9488 7.26726 16.1783 7.24845 16.4491ZM10.8407 16.7538H7.24092C7.24092 17.1375 7.26726 17.461 7.30863 17.7205C7.35001 17.9801 7.41395 18.217 7.50423 18.4352C7.80515 19.1311 8.26406 19.4809 8.88847 19.4809C9.24205 19.4809 9.56554 19.3756 9.85142 19.1687C10.1411 18.9618 10.378 18.6647 10.5699 18.2772L10.8257 18.4465C10.5736 18.9468 10.2689 19.3116 9.90784 19.5449C9.54674 19.7781 9.10664 19.8947 8.58379 19.8909C7.76378 19.8796 7.01147 19.6201 6.53752 19.1048C6.06357 18.5894 5.82283 17.8898 5.81531 16.9983C5.82283 16.0993 6.05605 15.3884 6.51495 14.8655C6.9701 14.3427 7.69983 14.0756 8.48223 14.0643C9.00508 14.0643 9.50912 14.1847 9.86647 14.4217C10.2238 14.6586 10.4871 15.0047 10.6564 15.4598C10.7128 15.6103 10.7542 15.7833 10.7805 15.9789C10.8106 16.1745 10.8294 16.4341 10.8369 16.7576" fill="#231F20"/>
<path d="M11.0702 14.2148L13.0675 14.0756C13.0788 14.275 13.0863 14.4405 13.0901 14.5759C13.0938 14.7113 13.0976 14.8317 13.0976 14.9332V15.253C13.5302 14.4593 14.0568 14.0606 14.6699 14.053C14.937 14.0568 15.1514 14.1358 15.3169 14.2863C15.4824 14.4367 15.5689 14.6285 15.5727 14.8618C15.5689 15.0574 15.4975 15.2116 15.3583 15.3282C15.2191 15.4448 15.0348 15.505 14.8091 15.5087C14.5383 15.5163 14.369 15.4034 14.3088 15.1702C14.2712 15.0235 14.2298 14.9257 14.1847 14.873C14.1433 14.8204 14.0794 14.7941 14.0004 14.7978H13.9778C13.7672 14.8166 13.5716 14.9821 13.3835 15.2981C13.297 15.4561 13.233 15.6291 13.1916 15.821C13.1503 16.0128 13.1277 16.231 13.1277 16.4792V18.4465C13.1239 18.7587 13.139 18.9919 13.1728 19.1386C13.2067 19.2853 13.2857 19.3831 13.4061 19.432C13.5264 19.4771 13.7183 19.5035 13.9778 19.5072V19.763H11.025V19.5072C11.2658 19.5072 11.4425 19.4847 11.5591 19.4395C11.6758 19.3906 11.751 19.2928 11.7848 19.1424C11.8187 18.9919 11.8337 18.7587 11.83 18.4503V15.5087C11.8413 15.0724 11.7961 14.7865 11.6983 14.6549C11.6005 14.5232 11.3899 14.463 11.0664 14.4781V14.2223L11.0702 14.2148Z" fill="#231F20"/>
<path d="M17.9462 14.0756L17.9575 15.1288C18.3863 14.4217 19.0032 14.0643 19.8044 14.0568C20.6207 14.053 21.1247 14.4254 21.3128 15.174C21.5422 14.7865 21.8055 14.5044 22.1027 14.3239C22.3998 14.1433 22.7459 14.0568 23.1409 14.0568C23.7653 14.0606 24.2242 14.2674 24.5213 14.6737C24.638 14.8279 24.7207 15.016 24.7696 15.2379C24.8185 15.4598 24.8411 15.7495 24.8411 16.1068V18.4427C24.8411 18.7549 24.8524 18.9844 24.8862 19.1348C24.9201 19.2853 24.9953 19.3869 25.1119 19.432C25.2285 19.4809 25.4053 19.5035 25.646 19.5035V19.7593H22.7685V19.5035C22.9979 19.5035 23.171 19.4809 23.28 19.432C23.3929 19.3831 23.4644 19.2853 23.4982 19.1348C23.5321 18.9844 23.5471 18.7512 23.5434 18.4427V16.1181C23.5434 15.5614 23.4756 15.1589 23.3365 14.9107C23.1973 14.6624 22.9716 14.542 22.6594 14.5458C22.287 14.5383 21.971 14.7339 21.7153 15.1288C21.4933 15.4598 21.3842 15.8172 21.3842 16.2009V18.4427C21.3805 18.7549 21.3955 18.9844 21.4294 19.1348C21.4632 19.2853 21.5385 19.3869 21.6513 19.432C21.7642 19.4809 21.9372 19.5035 22.1704 19.5035V19.7593H19.3229V19.5035C19.5524 19.5035 19.7254 19.4809 19.8345 19.432C19.9473 19.3831 20.0188 19.2853 20.0527 19.1348C20.0865 18.9844 20.1016 18.7512 20.0978 18.4427V16.1068C20.1016 15.0536 19.8157 14.5345 19.2364 14.5458C18.8753 14.5571 18.5744 14.7301 18.3299 15.0574C18.0854 15.3846 17.9613 15.7946 17.95 16.2874V18.4427C17.95 18.7587 17.9613 18.9882 17.9951 19.1424C18.029 19.2928 18.1004 19.3944 18.2133 19.4395C18.3261 19.4847 18.4954 19.5072 18.7248 19.5072V19.763H15.8473V19.5072C16.088 19.5072 16.2648 19.4847 16.3814 19.4395C16.498 19.3944 16.5733 19.2928 16.6071 19.1424C16.641 18.9919 16.656 18.7587 16.6522 18.4427V15.4899C16.6635 15.0574 16.6184 14.779 16.5206 14.6474C16.4228 14.5195 16.2046 14.4593 15.8661 14.4668V14.211L17.9387 14.0718L17.9462 14.0756Z" fill="#231F20"/>
<path d="M33.1992 14.5608V18.108C33.1992 18.3374 33.2067 18.5292 33.2255 18.6835C33.2443 18.8339 33.2706 18.9618 33.3083 19.0671C33.3534 19.1875 33.4211 19.2815 33.5151 19.353C33.6092 19.4245 33.7145 19.4621 33.8273 19.4621C34.053 19.4583 34.3013 19.3493 34.5721 19.1311L34.7188 19.3982C34.2938 19.7555 33.8085 19.9323 33.2631 19.9285C32.6763 19.921 32.2776 19.7254 32.0632 19.3455C32.0218 19.2627 31.988 19.1649 31.9654 19.0559C31.9428 18.9468 31.9278 18.8038 31.9165 18.6195C31.909 18.4352 31.9014 18.1907 31.9014 17.8785V14.5646H31.2958V14.2449C31.5253 14.2374 31.7247 14.1885 31.8826 14.0982C32.0444 14.0117 32.1836 13.8725 32.3039 13.6806C32.398 13.5377 32.477 13.376 32.5371 13.1992C32.5973 13.0224 32.65 12.8042 32.6989 12.5447L33.2293 12.492C33.2217 12.6312 33.2142 12.7741 33.2105 12.9208C33.2067 13.0638 33.2029 13.2405 33.1992 13.4437C33.1992 13.6468 33.1954 13.9063 33.1954 14.2261H34.4818V14.5646H33.1954L33.1992 14.5608Z" fill="#231F20"/>
<path d="M29.3098 17.5099V16.6936C28.5499 16.7463 28.0083 16.8855 27.6923 17.1149C27.3726 17.3444 27.2184 17.7017 27.2296 18.1907C27.2296 18.5744 27.3124 18.8753 27.4629 19.101C27.6171 19.3267 27.824 19.4395 28.0873 19.4433C28.3017 19.4433 28.5048 19.3793 28.6854 19.2552C28.8697 19.1311 29.0126 18.9618 29.1179 18.7399C29.1856 18.6045 29.2345 18.4427 29.2646 18.2471C29.2947 18.0515 29.3098 17.807 29.3098 17.5061M31.2921 19.5298V19.7555C30.9799 19.7743 30.8557 19.7743 30.5285 19.7743C30.269 19.7743 30.0019 19.7705 29.7762 19.6878C29.637 19.6351 29.5618 19.59 29.4602 19.4847C29.3888 19.3718 29.3436 19.3643 29.321 19.0483C29.0465 19.3455 28.7606 19.5637 28.4634 19.7028C28.1663 19.842 27.8465 19.9097 27.5042 19.9097C26.9964 19.906 26.5977 19.763 26.3081 19.4884C26.0184 19.2138 25.8755 18.8339 25.868 18.3487C25.868 17.4384 26.4322 16.8704 27.5682 16.6485C28.0797 16.5507 28.659 16.483 29.3098 16.4454V15.7532C29.3135 15.2003 29.2571 14.8166 29.133 14.6022C29.0088 14.3878 28.7944 14.2862 28.4785 14.2975C28.1437 14.29 27.9067 14.4104 27.7675 14.6586C27.7149 14.7452 27.6773 14.843 27.6547 14.952C27.6321 15.0611 27.6133 15.2153 27.5983 15.4109C27.5907 15.599 27.5343 15.7344 27.4328 15.8134C27.3312 15.8924 27.1695 15.9338 26.9475 15.93C26.4548 15.9263 26.2065 15.7645 26.2027 15.441C26.2027 15.253 26.2629 15.0724 26.3758 14.9031C26.4886 14.7339 26.6504 14.5834 26.861 14.4518C27.3049 14.1772 27.8841 14.0455 28.6026 14.0493C29.3323 14.0493 29.8589 14.1922 30.1749 14.4856C30.3178 14.621 30.4232 14.7941 30.4909 15.0009C30.5586 15.2116 30.5924 15.4787 30.5924 15.8021L30.5699 17.6528C30.5623 17.9537 30.5586 18.1456 30.5586 18.2283C30.5586 18.612 30.5661 18.8903 30.5962 19.0671C30.6263 19.2439 30.6526 19.3192 30.7692 19.417C30.9724 19.5336 31.1454 19.5298 31.2883 19.5298" fill="#231F20"/>
<path d="M38.4578 17.5099V16.6936C37.698 16.7463 37.1563 16.8855 36.8403 17.1149C36.5206 17.3444 36.3664 17.7017 36.3777 18.1907C36.3777 18.5744 36.4604 18.8753 36.6109 19.101C36.7651 19.3267 36.972 19.4395 37.2353 19.4471C37.4535 19.4471 37.6528 19.3831 37.8334 19.259C38.0177 19.1348 38.1606 18.9656 38.2659 18.7437C38.3336 18.6082 38.3826 18.4465 38.4126 18.2509C38.4427 18.0553 38.4578 17.8108 38.4578 17.5099ZM40.4401 19.5336V19.7593C40.1279 19.7781 40.0038 19.7818 39.6765 19.7818C39.417 19.7818 39.1499 19.7781 38.9242 19.6953C38.785 19.6427 38.7098 19.5975 38.6082 19.4922C38.5368 19.3793 38.4916 19.3718 38.4691 19.0559C38.1945 19.353 37.9086 19.5712 37.6114 19.7104C37.3143 19.8495 36.9946 19.9172 36.6523 19.9172C36.1444 19.9097 35.7457 19.7705 35.4561 19.496C35.1665 19.2214 35.0235 18.8415 35.016 18.3562C35.016 17.4459 35.5802 16.8779 36.7162 16.656C37.2278 16.5582 37.807 16.4905 38.4578 16.4529V15.7608C38.4615 15.2078 38.4051 14.8241 38.281 14.6097C38.1569 14.3953 37.9425 14.2938 37.6265 14.3051C37.2917 14.2975 37.0547 14.4179 36.9156 14.6662C36.8629 14.7527 36.8253 14.8505 36.8027 14.9596C36.7801 15.0686 36.7613 15.2229 36.7463 15.4185C36.7388 15.6065 36.6823 15.742 36.5808 15.821C36.4792 15.8999 36.3175 15.9413 36.0955 15.9376C35.6028 15.9376 35.3545 15.7721 35.3508 15.4486C35.3508 15.2605 35.411 15.0799 35.5238 14.9107C35.6366 14.7414 35.7984 14.5909 36.009 14.4593C36.4529 14.1885 37.0322 14.053 37.7506 14.0568C38.4803 14.053 39.007 14.1997 39.3229 14.4931C39.4659 14.6285 39.5712 14.7978 39.6389 15.0085C39.7066 15.2191 39.7405 15.4862 39.7405 15.8097L39.7179 17.6603C39.7104 17.9613 39.7066 18.1531 39.7066 18.2321C39.7066 18.6158 39.7141 18.8941 39.7442 19.0709C39.7706 19.2477 39.8044 19.3267 39.9173 19.4207C40.1204 19.5373 40.2934 19.5336 40.4363 19.5336" fill="#231F20"/>
<path d="M62.3171 6.46981L62.2945 6.87982L70.1448 16.088L70.4269 16.1332L70.4608 16.1143L70.6 15.8586L67.2522 4.653L66.6842 4.26932L62.3171 6.46981Z" fill="#00A0BB"/>
<path d="M62.2945 6.87982L70.1448 16.088L70.4269 16.1332L64.638 7.32744L62.2945 6.87982Z" fill="#005975"/>
<path d="M64.6831 6.6278L65.4993 6.98514L67.2522 4.65676L67.2522 4.653L66.6842 4.27309L64.6831 6.6278Z" fill="#00C0F3"/>
<path d="M62.2945 6.87982L64.638 7.32744L64.6831 6.6278L62.3171 6.46981L62.2945 6.87982Z" fill="#00748F"/>
<path d="M65.4993 6.98514L70.4608 16.1143L70.6 15.8586L67.2522 4.65676L65.4993 6.98514Z" fill="#00748F"/>
<path d="M74.9144 4.05116L79.9887 6.3833L80 7.04156L71.6682 19.6615L71.2883 19.7593L71.2319 19.7329L71.1153 19.4508L74.4706 4.29566L74.9144 4.05116Z" fill="#77B94E"/>
<path d="M76.6184 7.3312L71.2883 19.7593L71.6682 19.6615L80 7.04156L76.6184 7.3312Z" fill="#5C9330"/>
<path d="M74.4706 4.29566L71.1153 19.4508L71.2319 19.7329L75.6592 6.80083L74.4706 4.29566Z" fill="#167B3A"/>
<path d="M76.4266 6.42844L76.6184 7.3312L80 7.04156L79.9887 6.3833L76.4266 6.42844Z" fill="#A3CF62"/>
<path d="M74.4706 4.29566L75.6592 6.80083L76.4266 6.42844L74.9144 4.05116L74.4706 4.29566Z" fill="#5C9330"/>
<path d="M67.1619 0.458905L67.3613 0.0714689L73.8612 0L74.2825 0.436336L71.168 10.8369L70.9686 10.9535H70.9648L70.7504 10.8068L67.1619 0.458905Z" fill="#ED1A3B"/>
<path d="M67.1619 0.458905L69.6784 1.71149L70.1448 1.15855L67.3613 0.0714689L67.1619 0.458905Z" fill="#B41730"/>
<path d="M67.1582 0.458905L70.7504 10.8068L70.9611 10.9498L69.6784 1.71149L67.1582 0.458905Z" fill="#75191B"/>
<path d="M70.9009 1.71525L70.9686 10.9535L71.168 10.8369L74.2787 0.436336L70.9009 1.71525Z" fill="#B41730"/>
<path d="M73.8612 0L70.1448 1.15855L70.9009 1.71525L74.2825 0.436336L73.8612 0Z" fill="#F15B67"/>
</svg>
