<svg width="80" height="36" viewBox="0 0 80 36" fill="none" xmlns="http://www.w3.org/2000/svg">
<path fill-rule="evenodd" clip-rule="evenodd" d="M24.9554 0.00732258L1.05561 3.19434C1.05561 3.19434 0 3.31692 0 4.58885V27.2859C0 27.2859 0.144209 29.9422 3.17981 29.9422H30.2666C30.2666 29.9422 32.6807 29.3654 32.6807 26.9485V8.22003C32.6807 8.22003 32.7282 5.5637 29.5427 5.5637H3.42208C3.11467 5.4987 2.83195 5.34801 2.6066 5.12904C2.38126 4.91008 2.22251 4.6318 2.14871 4.32639C2.0694 3.90529 2.23957 3.86203 2.68517 3.86203H26.67V1.27492C26.67 1.27492 26.5849 -0.112371 24.9554 0.00732258Z" fill="#E8451E"/>
<path fill-rule="evenodd" clip-rule="evenodd" d="M16.8249 26.0904C14.8434 26.0904 13.384 25.2829 11.231 23.1529C11.0547 22.9688 10.9572 22.7232 10.9593 22.4683C10.9614 22.2134 11.063 21.9694 11.2424 21.7884C11.4218 21.6073 11.6648 21.5034 11.9197 21.4989C12.1745 21.4944 12.4211 21.5895 12.6068 21.7641C14.8737 24.0052 15.9236 24.5618 17.7348 24.0715C18.7876 23.7831 19.7321 22.4448 19.7869 20.9061C19.8302 19.7106 18.9866 18.9304 17.2806 18.5887C14.2176 17.9758 12.4092 16.8048 11.9073 15.106C11.5036 13.7389 12.0342 12.2117 13.3624 10.9239L13.4172 10.8749C16.2726 8.48826 19.5879 10.2664 20.942 11.5412C21.1227 11.7206 21.2263 11.9634 21.2308 12.218C21.2352 12.4725 21.1402 12.7188 20.9659 12.9044C20.7915 13.09 20.5517 13.2003 20.2973 13.2118C20.043 13.2233 19.7941 13.1351 19.6038 12.966C19.4899 12.8592 16.9244 10.5288 14.7007 12.3516C13.9407 13.1029 13.5975 13.9264 13.7849 14.558C14.0561 15.4781 15.4347 16.2308 17.6656 16.6779C21.4569 17.4364 21.7799 19.9413 21.7424 20.9825C21.6617 23.2509 19.7639 25.7919 17.9829 26.0169C17.5988 26.0658 17.212 26.0904 16.8249 26.0904V26.0904Z" fill="white"/>
<path fill-rule="evenodd" clip-rule="evenodd" d="M45.0307 22.0641H40.393V15.3252H44.575C44.6468 15.3247 44.7186 15.3286 44.7899 15.3368C45.4273 15.4074 48.2106 15.8891 48.2106 18.8742C48.2106 22.0612 45.0279 22.0612 45.0279 22.0612L45.0307 22.0641ZM44.2116 12.7569H37.7828V29.9423H40.393V24.8127H44.4914C45.8669 24.8261 47.2206 24.4695 48.411 23.7802C49.817 22.9481 51.2216 21.4815 51.2216 18.9463C51.2216 16.5683 49.9872 15.0599 48.6749 14.1268C47.3652 13.218 45.8057 12.7383 44.2116 12.754V12.7569Z" fill="#E8451E"/>
<path fill-rule="evenodd" clip-rule="evenodd" d="M57.6837 27.5758C56.9189 27.5758 56.1714 27.3491 55.5355 26.9243C54.8996 26.4996 54.4038 25.8959 54.1109 25.1895C53.818 24.4831 53.7411 23.7057 53.8899 22.9556C54.0386 22.2056 54.4064 21.5164 54.9468 20.9753C55.4871 20.4341 56.1757 20.0653 56.9256 19.9154C57.6755 19.7655 58.4529 19.8413 59.1598 20.1332C59.8666 20.425 60.471 20.9198 60.8967 21.5551C61.3224 22.1904 61.5502 22.9376 61.5513 23.7023V23.7124C61.5506 24.7375 61.1427 25.7204 60.4174 26.4449C59.6921 27.1694 58.7088 27.5761 57.6837 27.5758V27.5758ZM61.5513 17.7263V18.9362C60.6493 18.2041 59.5584 17.7426 58.4049 17.6051C57.2513 17.4676 56.0825 17.6598 55.0337 18.1593C53.9849 18.6588 53.0991 19.4453 52.4789 20.4276C51.8588 21.4099 51.5296 22.5478 51.5296 23.7095C51.5296 24.8712 51.8588 26.0091 52.4789 26.9914C53.0991 27.9737 53.9849 28.7602 55.0337 29.2597C56.0825 29.7593 57.2513 29.9514 58.4049 29.8139C59.5584 29.6764 60.6493 29.2149 61.5513 28.4828V29.8514H64.1586V17.7263H61.5513Z" fill="#E8451E"/>
<path fill-rule="evenodd" clip-rule="evenodd" d="M65.3325 17.5605H68.8195L72.9107 25.391L76.8577 17.5605H80V17.5821L70.6293 35.0242H67.5591L71.1369 28.542L65.3325 17.5605Z" fill="#E8451E"/>
</svg>
